<svg width="162" height="37" viewBox="0 0 162 37" fill="none" xmlns="http://www.w3.org/2000/svg">
<path d="M18.7027 0.99707C15.1441 0.99827 11.6658 2.05473 8.70748 4.03288C5.74919 6.01103 3.44381 8.82204 2.08282 12.1105C0.72183 15.3989 0.366355 19.0171 1.06134 22.5076C1.75632 25.998 3.47056 29.2041 5.9873 31.7202C8.50404 34.2364 11.7103 35.9497 15.2006 36.6436C18.6909 37.3375 22.3086 36.9808 25.5962 35.6185C28.8838 34.2563 31.6937 31.9497 33.6706 28.9904C35.6475 26.0311 36.7027 22.552 36.7027 18.993C36.696 14.2212 34.7973 9.64683 31.4229 6.27321C28.0485 2.89959 23.474 1.00215 18.7027 0.99707ZM8.34307 29.3528L5.68037 26.6949L11.0139 21.3648L22.7291 33.0865C20.2162 33.8045 17.557 33.837 15.0273 33.1804C12.4977 32.5239 10.1897 31.2023 8.34307 29.3528ZM29.0664 29.3528C28.1669 30.2552 27.1539 31.0369 26.0529 31.6781L6.02609 11.647C6.6628 10.5451 7.44182 9.53176 8.34307 8.63322C9.24293 7.73278 10.2563 6.95347 11.3576 6.31498L31.3793 26.3481C30.7405 27.4459 29.9617 28.4559 29.0624 29.3528H29.0664ZM26.3997 16.6263L14.6794 4.90462C17.1916 4.18679 19.8502 4.15426 22.3793 4.81043C24.9083 5.46659 27.2158 6.78754 29.0624 8.63625L31.7281 11.3023L26.3997 16.6263Z" fill="url(#paint0_linear_28_8)"/>
<path d="M58.6121 14.2894C58.5134 13.3656 58.0974 12.6463 57.364 12.1316C56.6377 11.6168 55.6927 11.3594 54.5292 11.3594C53.7112 11.3594 53.0096 11.4828 52.4243 11.7296C51.839 11.9764 51.3912 12.3114 51.0809 12.7345C50.7706 13.1576 50.612 13.6406 50.6049 14.1836C50.6049 14.6349 50.7072 15.0263 50.9117 15.3577C51.1232 15.6891 51.4088 15.9712 51.7685 16.2039C52.1281 16.4296 52.5265 16.62 52.9637 16.7751C53.4009 16.9302 53.8417 17.0607 54.2859 17.1665L56.3168 17.6742C57.1348 17.8646 57.9211 18.122 58.6756 18.4464C59.4372 18.7707 60.1177 19.1797 60.7171 19.6734C61.3235 20.167 61.803 20.7629 62.1556 21.461C62.5082 22.1591 62.6845 22.9771 62.6845 23.915C62.6845 25.1843 62.3601 26.302 61.7114 27.2681C61.0626 28.2271 60.1247 28.9781 58.8977 29.5211C57.6778 30.057 56.2005 30.325 54.4657 30.325C52.7804 30.325 51.3171 30.0641 50.076 29.5422C48.842 29.0204 47.8759 28.2588 47.1778 27.2575C46.4867 26.2561 46.113 25.0362 46.0566 23.5976H49.9174C49.9738 24.3522 50.2065 24.9798 50.6155 25.4804C51.0245 25.9811 51.5569 26.3549 52.2127 26.6017C52.8756 26.8485 53.616 26.9719 54.434 26.9719C55.2873 26.9719 56.0347 26.845 56.6764 26.5911C57.3252 26.3302 57.8329 25.9705 58.1996 25.5122C58.5663 25.0468 58.7532 24.5038 58.7602 23.8832C58.7532 23.3191 58.5875 22.8537 58.2631 22.487C57.9387 22.1133 57.4839 21.803 56.8986 21.5562C56.3203 21.3023 55.6434 21.0767 54.8677 20.8792L52.4031 20.2446C50.619 19.7862 49.2087 19.0916 48.1721 18.1608C47.1425 17.2229 46.6278 15.9783 46.6278 14.4269C46.6278 13.1505 46.9733 12.0328 47.6644 11.0738C48.3625 10.1148 49.3109 9.37081 50.5097 8.84193C51.7085 8.306 53.066 8.03803 54.5821 8.03803C56.1194 8.03803 57.4662 8.306 58.6227 8.84193C59.7863 9.37081 60.6994 10.1077 61.3623 11.0526C62.0252 11.9905 62.3672 13.0694 62.3883 14.2894H58.6121ZM66.183 29.9971V8.33421H80.2724V11.6238H70.1073V17.505H79.5425V20.7946H70.1073V26.7074H80.357V29.9971H66.183ZM102.078 8.33421V29.9971H98.5874L88.3801 15.2414H88.2002V29.9971H84.276V8.33421H87.7877L97.9845 23.1005H98.1749V8.33421H102.078ZM118.127 14.2894C118.028 13.3656 117.612 12.6463 116.879 12.1316C116.152 11.6168 115.207 11.3594 114.044 11.3594C113.226 11.3594 112.524 11.4828 111.939 11.7296C111.354 11.9764 110.906 12.3114 110.596 12.7345C110.285 13.1576 110.127 13.6406 110.12 14.1836C110.12 14.6349 110.222 15.0263 110.426 15.3577C110.638 15.6891 110.924 15.9712 111.283 16.2039C111.643 16.4296 112.041 16.62 112.478 16.7751C112.916 16.9302 113.356 17.0607 113.801 17.1665L115.832 17.6742C116.65 17.8646 117.436 18.122 118.19 18.4464C118.952 18.7707 119.632 19.1797 120.232 19.6734C120.838 20.167 121.318 20.7629 121.67 21.461C122.023 22.1591 122.199 22.9771 122.199 23.915C122.199 25.1843 121.875 26.302 121.226 27.2681C120.577 28.2271 119.639 28.9781 118.412 29.5211C117.192 30.057 115.715 30.325 113.98 30.325C112.295 30.325 110.832 30.0641 109.591 29.5422C108.357 29.0204 107.391 28.2588 106.692 27.2575C106.001 26.2561 105.628 25.0362 105.571 23.5976H109.432C109.488 24.3522 109.721 24.9798 110.13 25.4804C110.539 25.9811 111.072 26.3549 111.727 26.6017C112.39 26.8485 113.131 26.9719 113.949 26.9719C114.802 26.9719 115.549 26.845 116.191 26.5911C116.84 26.3302 117.348 25.9705 117.714 25.5122C118.081 25.0468 118.268 24.5038 118.275 23.8832C118.268 23.3191 118.102 22.8537 117.778 22.487C117.453 22.1133 116.999 21.803 116.413 21.5562C115.835 21.3023 115.158 21.0767 114.382 20.8792L111.918 20.2446C110.134 19.7862 108.723 19.0916 107.687 18.1608C106.657 17.2229 106.142 15.9783 106.142 14.4269C106.142 13.1505 106.488 12.0328 107.179 11.0738C107.877 10.1148 108.826 9.37081 110.024 8.84193C111.223 8.306 112.581 8.03803 114.097 8.03803C115.634 8.03803 116.981 8.306 118.137 8.84193C119.301 9.37081 120.214 10.1077 120.877 11.0526C121.54 11.9905 121.882 13.0694 121.903 14.2894H118.127ZM125.698 29.9971V8.33421H139.787V11.6238H129.622V17.505H139.057V20.7946H129.622V26.7074H139.872V29.9971H125.698ZM143.791 29.9971V8.33421H151.914C153.578 8.33421 154.975 8.62333 156.103 9.20157C157.238 9.77981 158.095 10.5908 158.673 11.6344C159.259 12.671 159.551 13.8804 159.551 15.2625C159.551 16.6517 159.255 17.8575 158.663 18.88C158.077 19.8955 157.214 20.6818 156.071 21.2388C154.929 21.7889 153.526 22.0639 151.861 22.0639H146.075V18.806H151.332C152.306 18.806 153.102 18.672 153.723 18.4041C154.344 18.129 154.802 17.7306 155.098 17.2088C155.401 16.6799 155.553 16.0312 155.553 15.2625C155.553 14.4939 155.401 13.8381 155.098 13.2951C154.795 12.7451 154.333 12.329 153.712 12.0469C153.092 11.7578 152.292 11.6133 151.311 11.6133H147.715V29.9971H143.791ZM154.982 20.1811L160.345 29.9971H155.965L150.698 20.1811H154.982Z" fill="#333333"/>
<defs>
<linearGradient id="paint0_linear_28_8" x1="6.00506" y1="6.28788" x2="31.4513" y2="31.7313" gradientUnits="userSpaceOnUse">
<stop stop-color="#19E1FF"/>
<stop offset="1" stop-color="#197DFF"/>
</linearGradient>
</defs>
</svg>
