<svg id="SVG_1" data-name="SVG 1" xmlns="http://www.w3.org/2000/svg" width="139.598" height="35.608" viewBox="0 0 139.598 35.608">
  <path id="Path_175" data-name="Path 175" d="M391.758,97.975l-3.092-.73c-2.013-.478-2.692-1.157-2.692-2.164,0-1.258,1.132-2.215,3.221-2.215a6.366,6.366,0,0,1,4.429,1.812l2.064-2.214A9.243,9.243,0,0,0,389.237,90c-3.925,0-6.467,2.215-6.467,5.285,0,2.341,1.536,3.951,4.328,4.631l3.092.73c1.914.453,2.642,1.208,2.642,2.29,0,1.384-1.208,2.391-3.347,2.391a8.718,8.718,0,0,1-5.209-1.938l-1.837,2.491a11.073,11.073,0,0,0,6.945,2.34c4.177,0,6.668-2.214,6.668-5.511C396.061,100.239,394.627,98.679,391.758,97.975Z" transform="translate(-340.21 -80.062)" fill="#fff"/>
  <path id="Path_176" data-name="Path 176" d="M532.23,110.325h12.356v-2.945H535.4v-4.73h8v-2.92h-8V95.654h9.186V92.71H532.23Z" transform="translate(-473.461 -82.473)" fill="#fff"/>
  <path id="Path_177" data-name="Path 177" d="M688.738,105.116,679.956,92.71H676.71v17.615h3.17V97.894l8.783,12.431h3.246V92.71h-3.171Z" transform="translate(-601.987 -82.473)" fill="#fff"/>
  <path id="Path_178" data-name="Path 178" d="M849.844,97.975l-3.092-.73c-2.014-.478-2.693-1.157-2.693-2.164,0-1.258,1.133-2.215,3.221-2.215a6.364,6.364,0,0,1,4.429,1.812l2.064-2.214A9.236,9.236,0,0,0,847.328,90c-3.926,0-6.467,2.215-6.467,5.285,0,2.341,1.535,3.951,4.329,4.631l3.092.73c1.912.453,2.642,1.208,2.642,2.29,0,1.384-1.208,2.391-3.347,2.391a8.723,8.723,0,0,1-5.21-1.938l-1.836,2.491a11.109,11.109,0,0,0,6.949,2.34c4.177,0,6.668-2.214,6.668-5.511C854.147,100.239,852.713,98.679,849.844,97.975Z" transform="translate(-747.718 -80.062)" fill="#fff"/>
  <path id="Path_179" data-name="Path 179" d="M990.28,110.325h12.356v-2.945H993.45v-4.73h8v-2.92h-8V95.654h9.186V92.71H990.28Z" transform="translate(-880.933 -82.473)" fill="#fff"/>
  <path id="Path_180" data-name="Path 180" d="M1143.987,103.606a5.164,5.164,0,0,0,4.306-5.334c0-3.423-2.389-5.562-6.19-5.562h-7.323v17.615h3.171v-6.515h2.466l4.807,6.515h3.85Zm-6.039-2.743v-5.19h3.85c2.188,0,3.221.907,3.221,2.593,0,1.656-1.032,2.592-3.221,2.592Z" transform="translate(-1009.477 -82.473)" fill="#fff"/>
  <path id="Path_181" data-name="Path 181" d="M17.806,0A17.8,17.8,0,1,0,35.612,17.8,17.825,17.825,0,0,0,17.806,0ZM7.558,28.047,4.924,25.418,10.2,20.146,21.789,31.74A14.487,14.487,0,0,1,7.558,28.047Zm20.5,0a14.549,14.549,0,0,1-2.981,2.3L5.266,10.534A14.34,14.34,0,0,1,7.558,7.553,14.493,14.493,0,0,1,10.54,5.26L30.346,25.075A14.493,14.493,0,0,1,28.054,28.047ZM25.42,15.459,13.826,3.865A14.486,14.486,0,0,1,28.054,7.556l2.637,2.637Z" fill="#fff"/>
</svg>
